HIERARCHY
ROOT Hips
{
	OFFSET 0.00000 0.00000 0.00000
	CHANNELS 6 Xposition Yposition Zposition Yrotation Zrotation Xrotation 
	JOINT Lumbar
	{
		OFFSET 0 0 0
		CHANNELS 3 Zrotation Xrotation Yrotation
		JOINT Neck
		{
			OFFSET 0.00 0.2701 0.00
			CHANNELS 3 Zrotation Xrotation Yrotation
			End Site
			{
				OFFSET 0.00 0.1379 0.00
			}
		}
		JOINT RightShoulder
		{
			OFFSET 0.0119 0.2289 0.1181
			CHANNELS 3 Zrotation Xrotation Yrotation
			JOINT RightElbow
			{
				OFFSET 0.00 -0.1475 0.00
				CHANNELS 2 Zrotation Yrotation
				JOINT RightWrist
				{
					OFFSET 0.00 -0.1605 0.00
					CHANNELS 2 Zrotation Xrotation
					End Site
					{
						OFFSET 0.0040 -0.1068 0.0006
					}
				}
			}
		}
		JOINT LeftShoulder
		{
			OFFSET 0.0119 0.2289 -0.1181
			CHANNELS 3 Zrotation Xrotation Yrotation
			JOINT LeftElbow
			{
				OFFSET 0.00 -0.1475 0.00
				CHANNELS 2 Zrotation Yrotation
				JOINT LeftWrist
				{
					OFFSET 0.00 -0.1605 0.00
					CHANNELS 2 Zrotation Xrotation
					End Site
					{
						OFFSET 0.0040 -0.1068 -0.0006
					}
				}
			}
		}
	}
	JOINT RightHip
	{
		OFFSET 0.0316 -0.0424 0.0458
		CHANNELS 3 Zrotation Xrotation Yrotation
		JOINT RightKnee
		{
			OFFSET 0.00 -0.2438 0.00
			CHANNELS 1 Zrotation
			JOINT RightAnkle
			{
				OFFSET 0.00 -0.2449 0.00
				CHANNELS 3 Zrotation Xrotation Yrotation
				End Site
				{
					OFFSET 0.1237 -0.0542 0.0051
				}
			}
		}
	}
	JOINT LeftHip
	{
		OFFSET 0.0316 -0.0424 -0.0458
		CHANNELS 3 Zrotation Xrotation Yrotation
		JOINT LeftKnee
		{
			OFFSET 0.00 -0.2438 0.00
			CHANNELS 1 Zrotation
			JOINT LeftAnkle
			{
				OFFSET 0.00 -0.2449 0.00
				CHANNELS 3 Zrotation Xrotation Yrotation
				End Site
				{
					OFFSET 0.1237 -0.0542 -0.0051
				}
			}
		}
	}
}
MOTION
Frames: 19
Frame Time: 0.02
-0.00088 -0.0003 0.00054 178.83144 -43.90566 1.53554 54.63534 -0.96775 -2.08019 -9.92754 -1.51381 -0.51381 7.06796 -102.29971 -90.01148 5.32852 54.32638 -19.19923 1.99906 11.90183 110.9532 -64.16836 5.32978 -91.4706 15.46477 1.65789 44.56522 -2.22222 -8.6178 -18.91268 -7.1515 -4.54025 -3.06183 50.29097 5.08317 10.68929 -24.20795 -7.96179 4.25938 2.96679
-0.00129 -0.00034 -0.00049 178.89575 -43.85074 1.56408 54.63863 -0.98952 -2.08157 -9.90861 -1.50066 -0.51381 7.06873 -102.27832 -90.01147 5.32852 54.37679 -19.18283 2.00313 11.87922 110.88826 -64.16818 5.32986 -91.49846 15.45376 1.64687 44.46877 -2.09405 -8.3939 -18.92531 -7.17061 -4.56791 -3.07974 50.22867 5.02645 10.02425 -24.22979 -8.03782 4.32378 3.00641
-0.0017 -0.00038 -0.00152 178.95997 -43.79598 1.59256 54.64186 -1.01124 -2.08294 -9.88967 -1.48753 -0.5138 7.06951 -102.257 -90.01146 5.32852 54.42714 -19.16659 2.00718 11.85651 110.82346 -64.168 5.32993 -91.52615 15.44289 1.63592 44.37268 -1.96612 -8.17064 -18.93798 -7.18967 -4.59551 -3.0976 50.16668 4.97008 9.36141 -24.25167 -8.11363 4.38797 3.04589
-0.0021 -0.00042 -0.00254 179.0241 -43.74122 1.62102 54.64513 -1.03294 -2.08431 -9.87078 -1.47441 -0.51379 7.07027 -102.23568 -90.01145 5.32852 54.47742 -19.15027 2.01123 11.83395 110.75871 -64.16782 5.33001 -91.55391 15.43194 1.62494 44.27653 -1.83832 -7.9474 -18.95059 -7.20872 -4.62309 -3.11546 50.10458 4.91355 8.69841 -24.27346 -8.18942 4.45217 3.08539
-0.00251 -0.00046 -0.00357 179.08828 -43.68631 1.64951 54.64848 -1.05468 -2.0857 -9.85195 -1.46129 -0.51378 7.07104 -102.21427 -90.01144 5.32852 54.52773 -19.13375 2.0153 11.81153 110.69383 -64.16763 5.33009 -91.58184 15.42078 1.61388 44.18001 -1.71037 -7.72361 -18.96312 -7.22782 -4.65072 -3.13336 50.04215 4.85662 8.03328 -24.29518 -8.26542 4.51658 3.12502
-0.00291 -0.0005 -0.0046 179.15255 -43.63186 1.67798 54.65146 -1.07635 -2.08702 -9.83277 -1.44814 -0.51378 7.07187 -102.19314 -90.01143 5.32852 54.57817 -19.11807 2.01931 11.78819 110.62922 -64.16746 5.33016 -91.60901 15.41051 1.60317 44.08484 -1.58248 -7.50151 -18.97608 -7.2468 -4.67824 -3.15114 49.9811 4.80146 7.37535 -24.31739 -8.34083 4.58028 3.16419
-0.00333 -0.00054 -0.00562 179.21658 -43.57654 1.70646 54.65519 -1.09814 -2.08849 -9.81431 -1.43506 -0.51377 7.07249 -102.17151 -90.01142 5.32852 54.62828 -19.10075 2.02343 11.76681 110.56413 -64.16726 5.33024 -91.63773 15.39855 1.59175 43.98702 -1.45459 -7.27607 -18.98817 -7.266 -4.70598 -3.16914 49.9173 4.74273 6.70341 -24.33858 -8.41734 4.64538 3.20425
-0.00373 -0.00058 -0.00665 179.28082 -43.52204 1.73493 54.65821 -1.11984 -2.08977 -9.79519 -1.42193 -0.51376 7.07345 -102.15029 -90.01141 5.32853 54.67871 -19.08487 2.02744 11.74347 110.49948 -64.16706 5.33032 -91.66495 15.38799 1.58102 43.89171 -1.32672 -7.05404 -19.00107 -7.28497 -4.73347 -3.18693 49.85609 4.68743 6.04482 -24.3607 -8.49282 4.70913 3.24347
-0.00411 -0.00062 -0.00768 179.34542 -43.46841 1.76342 54.66042 -1.14133 -2.09105 -9.77521 -1.40864 -0.51375 7.07425 -102.12974 -90.01142 5.32852 54.72951 -19.07105 2.03137 11.71828 110.43535 -64.16697 5.33038 -91.6906 15.37976 1.57097 43.79915 -1.19871 -6.83479 -19.01492 -7.30378 -4.76084 -3.20454 49.79784 4.63578 5.40061 -24.38405 -8.56716 4.77146 3.28177
-0.00459 -0.00066 -0.00869 179.40825 -43.40942 1.79187 54.66746 -1.16376 -2.09303 -9.76 -1.396 -0.51374 7.07427 -102.10585 -90.01138 5.32853 54.77811 -19.04632 2.03593 11.70536 110.36816 -64.1666 5.3305 -91.72609 15.36 1.55652 43.68985 -1.07103 -6.59535 -19.02321 -7.32389 -4.78945 -3.22342 49.72192 4.56149 4.66779 -24.40062 -8.64843 4.84265 3.32568
-0.00487 -0.00069 -0.00976 179.47462 -43.36198 1.82037 54.66422 -1.18435 -2.09308 -9.73488 -1.38214 -0.51375 7.077 -102.08869 -90.01137 5.32853 54.83138 -19.04399 2.03904 11.66556 110.30751 -64.16658 5.33051 -91.74031 15.36334 1.55168 43.61646 -0.94297 -6.4012 -19.04329 -7.34099 -4.81511 -3.23944 49.68368 4.536 4.1257 -24.43129 -8.71482 4.8947 3.35754
-0.00463 -0.00072 -0.011 179.5524 -43.34451 1.84912 54.63306 -1.19894 -2.09167 -9.68095 -1.36386 -0.51381 7.08086 -102.09219 -90.01147 5.32851 54.89776 -19.10847 2.03919 11.56206 110.26354 -64.16765 5.33017 -91.69923 15.44069 1.57087 43.63813 -0.81095 -6.30981 -19.09603 -7.35196 -4.83528 -3.24906 49.74698 4.63675 4.07923 -24.50267 -8.7424 4.89759 3.35801
-0.00419 -0.00073 -0.01231 179.63347 -43.33897 1.87789 54.59144 -1.21188 -2.08769 -9.61737 -1.34464 -0.51391 7.09018 -102.10167 -90.01117 5.32856 54.96894 -19.19434 2.03763 11.43162 110.22585 -64.16775 5.32979 -91.63598 15.53922 1.60011 43.69676 -0.67903 -6.26748 -19.16081 -7.35958 -4.85204 -3.25557 49.84864 4.78759 4.22802 -24.58787 -8.75483 4.88079 3.34614
-0.00384 -0.00075 -0.01359 179.71186 -43.32911 1.90655 54.55459 -1.22621 -2.08233 -9.55923 -1.32646 -0.51398 7.09913 -102.10742 -90.01161 5.32849 55.03751 -19.26705 2.03631 11.30448 110.18679 -64.16987 5.32937 -91.58117 15.62116 1.62632 43.74048 -0.54899 -6.21726 -19.21958 -7.36724 -4.86859 -3.26251 49.93375 4.9209 4.30741 -24.66539 -8.77269 4.87061 3.33869
-0.00352 -0.00077 -0.01485 179.79506 -43.3146 1.93561 54.51809 -1.23783 -2.08747 -9.49654 -1.30537 -0.51404 7.09277 -102.11892 -90.01152 5.32851 55.10721 -19.35475 2.03758 11.20716 110.14363 -64.17064 5.32892 -91.53421 15.73267 1.64621 43.77532 -0.41098 -6.10796 -19.27964 -7.38086 -4.89234 -3.27348 50.01453 5.03354 4.31136 -24.74872 -8.79601 4.86958 3.33587
-0.00307 -0.00079 -0.01619 179.86926 -43.3126 1.96386 54.47778 -1.25471 -2.07045 -9.44113 -1.29051 -0.51419 7.12761 -102.11803 -90.01015 5.32872 55.17656 -19.41574 2.03265 11.05123 110.10782 -64.16731 5.32886 -91.46438 15.78745 1.68149 43.83864 -0.28942 -6.13129 -19.34115 -7.38162 -4.90056 -3.27548 50.11426 5.19945 4.51145 -24.82337 -8.80517 4.84561 3.32094
-0.00233 -0.00083 -0.01775 179.91593 -43.34222 1.98993 54.43427 -1.28663 -1.99023 -9.4077 -1.28969 -0.51425 7.24813 -102.09035 -90.01422 5.32808 55.24147 -19.39709 2.0124 10.69781 110.10396 -64.17862 5.32863 -91.34609 15.67684 1.76003 43.96141 -0.21501 -6.52716 -19.39338 -7.34472 -4.8644 -3.25192 50.25013 5.51434 5.26761 -24.87005 -8.77222 4.75646 3.27167
-0.00146 -0.00086 -0.01941 179.95384 -43.38391 2.01523 54.38615 -1.32388 -1.88831 -9.38211 -1.29585 -0.51448 7.44376 -102.04362 -90.00808 5.32905 55.30985 -19.34725 1.98444 10.32364 110.09804 -64.15925 5.33009 -91.20266 15.50588 1.85442 44.11376 -0.15707 -7.05186 -19.44917 -7.29549 -4.81311 -3.21968 50.40528 5.87845 6.20314 -24.90812 -8.72676 4.6461 3.21134
-0.00063 -0.0009 -0.02102 179.99697 -43.42019 2.04077 54.3373 -1.35861 -1.79809 -9.35314 -1.30096 -0.51486 7.58589 -102.00578 -90.01001 5.32874 55.37362 -19.3168 1.96069 9.94934 110.09303 -64.16467 5.33027 -91.06611 15.36887 1.93775 44.25885 -0.09012 -7.50496 -19.50938 -7.25394 -4.77037 -3.19247 50.55571 6.21072 7.01514 -24.94992 -8.69149 4.54985 3.15866
